<svg id="visual" viewBox="0 0 900 600" width="900" height="600" xmlns="http://www.w3.org/2000/svg" xmlns:xlink="http://www.w3.org/1999/xlink" version="1.1"><rect x="0" y="0" width="900" height="600" fill="#FFFFFF"></rect><path d="M0 403L21.5 404.2C43 405.3 86 407.7 128.8 422.7C171.7 437.7 214.3 465.3 257.2 482.2C300 499 343 505 385.8 486.8C428.7 468.7 471.3 426.3 514.2 422.3C557 418.3 600 452.7 642.8 462.8C685.7 473 728.3 459 771.2 453.7C814 448.3 857 451.7 878.5 453.3L900 455L900 601L878.5 601C857 601 814 601 771.2 601C728.3 601 685.7 601 642.8 601C600 601 557 601 514.2 601C471.3 601 428.7 601 385.8 601C343 601 300 601 257.2 601C214.3 601 171.7 601 128.8 601C86 601 43 601 21.5 601L0 601Z" fill="#00b3ff" stroke-linecap="round" stroke-linejoin="miter"></path></svg>